<svg width="24" height="24" viewBox="0 0 24 24" fill="none" xmlns="http://www.w3.org/2000/svg">
<path d="M12.8 19.2006H19.2001M19.3393 7.84999C19.5487 7.64061 19.7149 7.39202 19.8282 7.11843C19.9416 6.84483 20 6.55159 20 6.25544C20 5.95929 19.9417 5.66603 19.8284 5.39241C19.7152 5.11878 19.5491 4.87016 19.3397 4.66072C19.1303 4.45128 18.8817 4.28514 18.6081 4.17177C18.3345 4.05841 18.0413 4.00004 17.7452 4C17.449 3.99996 17.1558 4.05826 16.8821 4.17156C16.6085 4.28485 16.3599 4.45094 16.1505 4.66032L5.47356 15.3398C5.28781 15.525 5.15045 15.753 5.07356 16.0038L4.01675 19.4855C3.99607 19.5546 3.99451 19.6281 4.01223 19.6981C4.02995 19.7681 4.06628 19.832 4.11739 19.8831C4.16849 19.9341 4.23245 19.9703 4.30248 19.9879C4.37251 20.0055 4.446 20.0039 4.51515 19.9831L7.99758 18.927C8.24812 18.8508 8.47613 18.7143 8.66159 18.5294L19.3393 7.84999Z" stroke="#EFEFEF" stroke-width="2" stroke-linecap="round" stroke-linejoin="round"/>
</svg>
